<svg id="Layer_1" data-name="Layer 1" xmlns="http://www.w3.org/2000/svg" viewBox="0 0 123.51 144"><defs><style>.cls-1{fill:#330072;}.cls-2{fill:#685bc7;}</style></defs><title>StarlingX_Logo_RGB_Stacked_2color</title><path class="cls-1" d="M87.79,208.81c-2-.52-2.52-.77-2.52-1.53v0c0-.56.51-1,1.5-1a5.44,5.44,0,0,1,3,1.15l1.34-1.94A6.78,6.78,0,0,0,86.8,204c-2.38,0-4.09,1.4-4.09,3.52v0c0,2.32,1.52,3,3.87,3.57,2,.5,2.36.83,2.36,1.48v0c0,.68-.64,1.1-1.69,1.1a5.34,5.34,0,0,1-3.48-1.42l-1.52,1.82a7.42,7.42,0,0,0,5,1.87c2.52,0,4.29-1.3,4.29-3.62v0C91.49,210.28,90.15,209.43,87.79,208.81Z" transform="translate(-82.25 -72)"/><polygon class="cls-1" points="13.57 134.49 17.12 134.49 17.12 143.8 19.69 143.8 19.69 134.49 23.25 134.49 23.25 132.12 13.57 132.12 13.57 134.49"/><path class="cls-1" d="M113.14,204l-5,11.76h2.61l1.07-2.62h4.94l1.07,2.62h2.68l-5-11.76Zm-.4,6.87,1.55-3.78,1.55,3.78Z" transform="translate(-82.25 -72)"/><path class="cls-1" d="M135.24,208v0a3.68,3.68,0,0,0-1-2.67,4.62,4.62,0,0,0-3.4-1.19h-5.34V215.8h2.57v-3.74h2l2.5,3.74h3l-2.86-4.17A3.63,3.63,0,0,0,135.24,208Zm-2.61.13c0,1-.71,1.66-2,1.66h-2.6v-3.36h2.55c1.26,0,2,.57,2,1.67Z" transform="translate(-82.25 -72)"/><polygon class="cls-1" points="61.05 132.12 58.49 132.12 58.49 143.8 66.88 143.8 66.88 141.47 61.05 141.47 61.05 132.12"/><rect class="cls-1" x="72.11" y="132.12" width="2.57" height="11.68"/><polygon class="cls-1" points="88.61 139.31 83.14 132.12 80.77 132.12 80.77 143.8 83.3 143.8 83.3 136.38 88.96 143.8 91.14 143.8 91.14 132.12 88.61 132.12 88.61 139.31"/><path class="cls-1" d="M184.91,211.3h2.59V213a4.09,4.09,0,0,1-2.42.71,3.5,3.5,0,0,1-3.54-3.71v0a3.5,3.5,0,0,1,3.35-3.64,4.31,4.31,0,0,1,3.06,1.19l1.61-2a6.4,6.4,0,0,0-4.58-1.6,6,6,0,0,0-6.13,6v0a5.85,5.85,0,0,0,6.14,6,7.56,7.56,0,0,0,5-1.85v-5.07h-5.07Z" transform="translate(-82.25 -72)"/><polygon class="cls-1" points="123.34 132.12 120.42 132.12 117.94 135.91 115.5 132.12 112.5 132.12 116.4 137.86 112.33 143.8 115.25 143.8 117.89 139.8 120.5 143.8 123.51 143.8 119.44 137.83 123.34 132.12"/><polygon class="cls-2" points="58.46 21.04 42.68 0 0 0 37.12 49.49 58.46 21.04"/><path class="cls-2" d="M137.22,145.3l25.85,34.47h42.68L168.44,130C160.24,138.61,148.31,144.52,137.22,145.3Z" transform="translate(-82.25 -72)"/><path class="cls-1" d="M111.59,170.56l22.84-30.45h.32c11.81,0,25.65-7.32,33.15-17.64l23.37-31.16a47.48,47.48,0,0,1,14.48-12.17c-6.28-2.61-15.84-4-15.84-4C186.21,72,177.76,72,177.76,72c-14.69,0-21.67,9.31-21.67,9.31l-32.21,43c19.16-.12,23-3.08,34.73-18.24l2.45-3.32a13,13,0,0,1,10.46-5.27l-8.71,11.77c-12.75,16.49-18,20.34-40.18,20.34-.93,0-1.82,0-2.69,0L82.25,179.77h9.24C98.54,179.77,107.14,176,111.59,170.56Z" transform="translate(-82.25 -72)"/></svg>