<svg id="Layer_1" data-name="Layer 1" xmlns="http://www.w3.org/2000/svg" viewBox="0 0 168.39 36"><defs><style>.cls-1{fill:#685bc7;}.cls-2{fill:#330072;}</style></defs><title>StarlingX_Logo_RGB_Horizontal_2color</title><polygon class="cls-1" points="19.53 7.03 14.26 0 0 0 12.4 16.53 19.53 7.03"/><path class="cls-1" d="M78.17,78.48,86.8,90h14.26L88.6,73.38A16.76,16.76,0,0,1,78.17,78.48Z" transform="translate(-59.8 -54)"/><path class="cls-2" d="M91.71,54a9.23,9.23,0,0,0-7.24,3.11L73.71,71.46c6.4,0,7.69-1,11.6-6.1l.82-1.1a4.34,4.34,0,0,1,3.49-1.76l-2.9,3.93c-4.26,5.51-6,6.79-13.43,6.79H72.4L59.8,90h3.09a9.37,9.37,0,0,0,6.72-3.08l7.62-10.17h.11a14.79,14.79,0,0,0,11.08-5.89l7.8-10.41a15.94,15.94,0,0,1,4.84-4.07,26.77,26.77,0,0,0-5.29-1.32C94.53,54,91.71,54,91.71,54Z" transform="translate(-59.8 -54)"/><path class="cls-2" d="M110.88,70.86c-2-.52-2.51-.77-2.51-1.53v0c0-.57.51-1,1.49-1a5.49,5.49,0,0,1,3,1.15l1.33-1.93A6.75,6.75,0,0,0,109.9,66c-2.38,0-4.07,1.39-4.07,3.5v0c0,2.31,1.51,3,3.85,3.55,1.94.5,2.34.83,2.34,1.48v0c0,.68-.63,1.1-1.68,1.1a5.33,5.33,0,0,1-3.46-1.41l-1.51,1.8A7.35,7.35,0,0,0,110.29,78c2.51,0,4.27-1.29,4.27-3.6v0C114.56,72.32,113.23,71.47,110.88,70.86Z" transform="translate(-59.8 -54)"/><polygon class="cls-2" points="59.06 14.55 62.59 14.55 62.59 23.81 65.15 23.81 65.15 14.55 68.68 14.55 68.68 12.19 59.06 12.19 59.06 14.55"/><path class="cls-2" d="M136.09,66.11l-5,11.7h2.61l1.06-2.61h4.91l1.06,2.61h2.67l-5-11.7Zm-.4,6.84,1.55-3.77L138.78,73Z" transform="translate(-59.8 -54)"/><path class="cls-2" d="M158.06,70.06v0a3.64,3.64,0,0,0-1-2.66,4.65,4.65,0,0,0-3.39-1.18h-5.3V77.81h2.55V74.09h2l2.49,3.72h3l-2.83-4.15A3.61,3.61,0,0,0,158.06,70.06Zm-2.58.13c0,1-.72,1.64-2,1.64h-2.59V68.5h2.54c1.24,0,2,.56,2,1.66Z" transform="translate(-59.8 -54)"/><polygon class="cls-2" points="106.28 12.19 103.73 12.19 103.73 23.81 112.07 23.81 112.07 21.48 106.28 21.48 106.28 12.19"/><rect class="cls-2" x="117.27" y="12.19" width="2.55" height="11.61"/><polygon class="cls-2" points="133.68 19.34 128.24 12.19 125.89 12.19 125.89 23.81 128.41 23.81 128.41 16.42 134.03 23.81 136.21 23.81 136.21 12.19 133.68 12.19 133.68 19.34"/><path class="cls-2" d="M207.47,73.33H210V75a4.12,4.12,0,0,1-2.41.69A3.48,3.48,0,0,1,204.12,72v0a3.48,3.48,0,0,1,3.33-3.62,4.29,4.29,0,0,1,3,1.18l1.6-1.94a6.37,6.37,0,0,0-4.56-1.6,6,6,0,0,0-6.09,6v0a5.82,5.82,0,0,0,6.11,6,7.52,7.52,0,0,0,5-1.85v-5h-5Z" transform="translate(-59.8 -54)"/><polygon class="cls-2" points="164.34 17.87 168.22 12.19 165.32 12.19 162.85 15.96 160.43 12.19 157.44 12.19 161.32 17.9 157.28 23.81 160.18 23.81 162.8 19.83 165.41 23.81 168.39 23.81 164.34 17.87"/></svg>